<svg id="图层_1" data-name="图层 1" xmlns="http://www.w3.org/2000/svg" viewBox="0 0 1191.83 699.97">
    <defs>
        <style>.cls-1{fill:#f7931e;}</style>
    </defs>
    <title>Logo</title>
    <path class="cls-1"
          d="M472.52,464.78h-99a20.78,20.78,0,0,0-1.59-2.44l-48.53-63.79c-10.34-13.6-1.94-34.88,13.77-34.88h20.26c10.11,0,18.3-9.42,18.3-21V232.37c0-11.62-8.19-21-18.3-21h-249c-10.1,0-18.29,9.42-18.29,21V476.19c0,11.61,8.19,21,18.29,21h38.72c10.1,0,18.29-9.42,18.29-21V274.43c0-11.61,8.19-21,18.29-21H284.24c10.11,0,18.3,9.42,18.3,21v26.14c0,11.62-8.19,21-18.3,21H217.16c-15.72,0-24.12,21.3-13.75,34.89L305.24,490.05A17.36,17.36,0,0,0,319,497.22H458.2a8.51,8.51,0,0,0,6.23-2.72l14.33-15.45A8.5,8.5,0,0,0,472.52,464.78Z"/>
    <path class="cls-1"
          d="M445.84,237.31l2.06,2.38a14.5,14.5,0,0,0,11,5l52.77,0a14.51,14.51,0,0,1,14.51,14.54L526,344.16l24.15,24.09L526,392.41l-.14,90.25a14.54,14.54,0,0,0,14.53,14.56h29.91a14.54,14.54,0,0,0,14.54-14.51l.24-157.07-25.29-25.29-.33-17.22,25.64,25.64,0-17.74-25.26-25.26-.33-17.23,25.62,25.62,0-14.91a14.53,14.53,0,0,1,14.53-14.51h38.05V225.87a14.48,14.48,0,0,1,4.17-10.19c-52.32,0-140.93,0-186.2,0A13,13,0,0,0,445.84,237.31Z"/>
    <path class="cls-1"
          d="M516.83,343.54V308H481.14l-25.23-25.16L430.68,308H395v35.59l-25.23,25.17L395,393.88v35.59h35.69l25.23,25.16,25.23-25.16h35.69V393.88l25.23-25.17Zm-33.89,35.79v16.34H466.56l-10.73,10.7-10.74-10.7H428.88V379.5L417.6,368.25,428.88,357V341.75h15.29l11.66-11.62,11.65,11.62h15.46v15.42l11.11,11.08Z"/>
    <path class="cls-1"
          d="M1112.12,477.08,995.83,345a14.53,14.53,0,0,1,10.94-24.1h16.09a14.52,14.52,0,0,0,14.53-14.53V230.21a14.52,14.52,0,0,0-14.53-14.53H875.71a14.48,14.48,0,0,1,4.17,10.19v19.77a14.52,14.52,0,0,1,5-.9h79.86a14.53,14.53,0,0,1,14.53,14.54v18.06a14.53,14.53,0,0,1-14.53,14.53H934.36A14.53,14.53,0,0,0,923.43,316l158.64,180.24a14.53,14.53,0,0,0,10.93,5h8.18A14.54,14.54,0,0,0,1112.12,477.08Z"/>
    <rect class="cls-1" x="599.44" y="368.71" width="39.74" height="132.47" rx="9.75"/>
    <path class="cls-1"
          d="M811.93,343.65v25a9.56,9.56,0,0,1,6.19,1.53l52,33.81a14.34,14.34,0,0,0,1-5.34V230.21a14.53,14.53,0,0,0-14.53-14.53h-195a14.53,14.53,0,0,0-14.54,14.53V377.48L657,366a9.71,9.71,0,0,1,7.4-3.41h43.15V343.65a14.53,14.53,0,0,1,14.53-14.53H797.4A14.53,14.53,0,0,1,811.93,343.65ZM796,299.77H722.9a14.53,14.53,0,0,1-14.53-14.53v-26a14.53,14.53,0,0,1,14.53-14.54H796a14.54,14.54,0,0,1,14.53,14.54v26A14.54,14.54,0,0,1,796,299.77Z"/>
    <path class="cls-1"
          d="M783.15,425.1H693.64a9.74,9.74,0,0,1-9.74-9.74V401.54a9.75,9.75,0,0,1,2.44-6.45l3.16-3.59a9.75,9.75,0,0,1,7.31-3.3H776.3a9.75,9.75,0,1,0,0-19.49H666.81a9.73,9.73,0,0,0-7.4,3.41L646.69,387a9.74,9.74,0,0,0-2.34,6.34v41.53a9.74,9.74,0,0,0,9.74,9.74H743a9.75,9.75,0,0,1,9.74,9.75v15.59a9.77,9.77,0,0,1-2.36,6.36l-1.72,2a9.73,9.73,0,0,1-7.39,3.39H660.7a9.75,9.75,0,0,0,0,19.5H771.2a9.73,9.73,0,0,0,7.39-3.4l12-13.92a9.79,9.79,0,0,0,2.35-6.35V434.85A9.75,9.75,0,0,0,783.15,425.1Z"/>
    <path class="cls-1"
          d="M945.87,378.49l-61.2,39.76a9.74,9.74,0,0,1-10.62,0l-61.19-39.76a9.75,9.75,0,0,0-15.06,8.17V491.43a9.76,9.76,0,0,0,9.75,9.75h20.06a9.75,9.75,0,0,0,9.74-9.75V443.1a9.74,9.74,0,0,1,15-8.21l21.79,13.93a9.74,9.74,0,0,0,10.47,0l22.18-14.06a9.74,9.74,0,0,1,15,8.23v48.42a9.76,9.76,0,0,0,9.75,9.75h19.68a9.75,9.75,0,0,0,9.74-9.75V386.66A9.74,9.74,0,0,0,945.87,378.49Z"/>
    <path d="M468,203.73a13.05,13.05,0,0,0-9.86,21.59l2.05,2.38a14.54,14.54,0,0,0,11,5H524a14.53,14.53,0,0,1,14.51,14.54l-.13,84.89,24.15,24.09-24.23,24.16-.14,90.25a14.54,14.54,0,0,0,14.54,14.56H582.6a14.53,14.53,0,0,0,14.53-14.51l.24-157.08-25.28-25.28-.33-17.23,25.64,25.64,0-17.74-25.26-25.26-.33-17.22,25.62,25.62,0-14.91A14.54,14.54,0,0,1,612,232.75h38V213.87a14.5,14.5,0,0,1,4.18-10.19C601.91,203.69,513.3,203.7,468,203.73Z"/>
    <path d="M529.15,331.55V296H493.47l-25.24-25.17L443,296H407.32v35.59l-25.24,25.17,25.24,25.16v35.59H443l25.23,25.17,25.24-25.17h35.68V381.88l25.24-25.16Zm-33.89,35.79v16.33H478.89l-10.74,10.71-10.73-10.71H441.21V367.5l-11.28-11.24L441.21,345V329.76H456.5l11.65-11.63,11.66,11.63h15.45v15.41l11.12,11.09Z"/>
    <path d="M370.46,485.23H331.32a17.37,17.37,0,0,1-13.75-7.17L215.73,344.51c-10.36-13.59-2-34.9,13.76-34.9h67.08c10.1,0,18.29-9.42,18.29-21V262.44c0-11.62-8.19-21-18.29-21H196.05c-10.1,0-18.29,9.41-18.29,21V464.19c0,11.62-8.19,21-18.3,21H120.75c-10.11,0-18.3-9.42-18.3-21V220.37c0-11.61,8.19-21,18.3-21h249c10.1,0,18.29,9.42,18.29,21V330.64c0,11.62-8.19,21-18.29,21H349.48c-15.72,0-24.12,21.28-13.77,34.88l48.52,63.79C394.58,464,386.18,485.23,370.46,485.23Z"/>
    <path d="M465.77,485.23H334.46a8.5,8.5,0,0,1-8.5-8.5V461.28a8.5,8.5,0,0,1,8.5-8.5H480.1a8.5,8.5,0,0,1,6.23,14.28L472,482.51A8.49,8.49,0,0,1,465.77,485.23Z"/>
    <path d="M1124.44,465.08,1008.15,333a14.53,14.53,0,0,1,10.94-24.1h16.1a14.54,14.54,0,0,0,14.53-14.53V218.22a14.54,14.54,0,0,0-14.53-14.54H888a14.5,14.5,0,0,1,4.18,10.19v19.78a14.48,14.48,0,0,1,5-.9h79.86a14.53,14.53,0,0,1,14.53,14.53v18.06a14.53,14.53,0,0,1-14.53,14.53H946.68A14.53,14.53,0,0,0,935.76,304L1094.4,484.23a14.52,14.52,0,0,0,10.92,4.95h8.18A14.53,14.53,0,0,0,1124.44,465.08Z"/>
    <path d="M621.51,356.72h20.25a9.74,9.74,0,0,1,9.74,9.74v113a9.74,9.74,0,0,1-9.74,9.74H621.51a9.75,9.75,0,0,1-9.75-9.74v-113A9.75,9.75,0,0,1,621.51,356.72Z"/>
    <path d="M869,203.68H674a14.54,14.54,0,0,0-14.53,14.54V365.49L669.29,354a9.75,9.75,0,0,1,7.4-3.4h43.15V331.66a14.54,14.54,0,0,1,14.54-14.54h75.34a14.53,14.53,0,0,1,14.53,14.54v25a9.66,9.66,0,0,1,6.2,1.54l52,33.81a14.58,14.58,0,0,0,1-5.34V218.22A14.53,14.53,0,0,0,869,203.68Zm-46.14,69.56a14.52,14.52,0,0,1-14.53,14.53H735.22a14.53,14.53,0,0,1-14.53-14.53v-26a14.54,14.54,0,0,1,14.53-14.53h73.09a14.53,14.53,0,0,1,14.53,14.53Z"/>
    <path d="M802.87,471.86l-12,13.92a9.73,9.73,0,0,1-7.39,3.4H673a9.74,9.74,0,0,1-7.34-3.33h0A9.75,9.75,0,0,1,673,469.69h80.61A9.75,9.75,0,0,0,761,466.3l1.73-2a9.75,9.75,0,0,0,2.36-6.35V442.35a9.75,9.75,0,0,0-9.75-9.75H666.42a9.75,9.75,0,0,1-9.75-9.75V381.32A9.77,9.77,0,0,1,659,375l12.72-14.86a9.77,9.77,0,0,1,7.41-3.4H788.62A9.74,9.74,0,0,1,796,372.79h0a9.74,9.74,0,0,1-7.41,3.42H709.14a9.74,9.74,0,0,0-7.31,3.3l-3.17,3.59a9.74,9.74,0,0,0-2.44,6.44v13.82a9.76,9.76,0,0,0,9.75,9.75h89.51a9.74,9.74,0,0,1,9.74,9.74v42.66A9.74,9.74,0,0,1,802.87,471.86Z"/>
    <path d="M810.13,479.44V374.67a9.74,9.74,0,0,1,15-8.17l61.2,39.75a9.74,9.74,0,0,0,10.62,0l61.19-39.75a9.75,9.75,0,0,1,15.06,8.17V479.44a9.74,9.74,0,0,1-9.75,9.74H943.82a9.74,9.74,0,0,1-9.74-9.74V431a9.75,9.75,0,0,0-15-8.24l-22.18,14.07a9.76,9.76,0,0,1-10.47,0l-21.78-13.94a9.75,9.75,0,0,0-15,8.21v48.34a9.74,9.74,0,0,1-9.75,9.74H819.87A9.74,9.74,0,0,1,810.13,479.44Z"/>
</svg>