<svg id="图层_1" data-name="图层 1" xmlns="http://www.w3.org/2000/svg" viewBox="0 0 1060.56 669.3">
    <defs>
        <style>.cls-1{fill:#999;}.cls-2{fill:#666;}.cls-3{fill:none;}.cls-4{fill:#f7931e;}</style>
    </defs>
    <title>logo with bg</title>
    <rect class="cls-1" x="577.3" y="-256.67" width="90.02" height="1394.3"
          transform="matrix(0.75, 0.66, -0.66, 0.75, 446.32, -301.36)"/>
    <rect class="cls-1" x="707.89" y="-141.69" width="90.02" height="1394.3"
          transform="translate(554.88 -358.97) rotate(41.36)"/>
    <rect class="cls-1" x="845.65" y="-26.46" width="90.02" height="1394.3"
          transform="translate(665.39 -421.26) rotate(41.36)"/>
    <rect class="cls-1" x="442.53" y="-373.06" width="90.02" height="1394.3"
          transform="matrix(0.75, 0.66, -0.66, 0.75, 335.79, -241.33)"/>
    <rect class="cls-1" x="307.66" y="-491.8" width="90.02" height="1394.3"
          transform="translate(223.68 -181.83) rotate(41.36)"/>
    <rect class="cls-1" x="177.98" y="-608.26" width="90.02" height="1394.3"
          transform="matrix(0.75, 0.66, -0.66, 0.75, 114.37, -125.18)"/>
    <polyline class="cls-1"
              points="-4.31 -5.89 -410.13 455.04 -334.86 521.31 586.53 -525.16 511.25 -591.44 -4.31 -5.89"/>
    <polyline class="cls-2" points="1068.14 1.71 195.14 993.23 262.7 1052.71 1184.09 6.24 1116.52 -53.25 1068.14 1.71"/>
    <rect class="cls-2" x="777.59" y="-84.52" width="90.02" height="1394.3"
          transform="translate(610.05 -390.77) rotate(41.36)"/>
    <rect class="cls-2" x="907.79" y="31.48" width="90.02" height="1394.3"
          transform="translate(719.18 -447.87) rotate(41.36)"/>
    <rect class="cls-2" x="509.83" y="-313.8" width="90.02" height="1394.3"
          transform="translate(391.73 -271.02) rotate(41.36)"/>
    <rect class="cls-2" x="374.96" y="-432.54" width="90.02" height="1394.3"
          transform="translate(279.62 -211.52) rotate(41.36)"/>
    <rect class="cls-2" x="245.28" y="-549" width="90.02" height="1394.3"
          transform="matrix(0.75, 0.66, -0.66, 0.75, 170.31, -154.87)"/>
    <polyline class="cls-2"
              points="169.6 -53.45 -336.25 521.08 -268.69 580.57 652.7 -465.9 585.13 -525.39 169.6 -53.45"/>
    <line class="cls-3" x1="118.39" y1="0.91" x2="1060.5" y2="0.98"/>
    <line class="cls-3" y1="0.91" x2="118.39" y2="0.91"/>
    <path class="cls-4"
          d="M393.71,465.93h-99a23.23,23.23,0,0,0-1.6-2.44L244.57,399.7c-10.35-13.6-1.95-34.88,13.77-34.88H278.6c10.1,0,18.29-9.41,18.29-21V233.52c0-11.62-8.19-21-18.29-21h-249c-10.11,0-18.3,9.41-18.3,21V477.34c0,11.62,8.19,21,18.3,21H68.32c10.11,0,18.3-9.41,18.3-21V275.59c0-11.62,8.19-21,18.29-21H205.43c10.1,0,18.29,9.42,18.29,21v26.13c0,11.62-8.19,21-18.29,21H138.35c-15.73,0-24.12,21.3-13.76,34.9L226.42,491.21a17.4,17.4,0,0,0,13.76,7.16h139.2a8.49,8.49,0,0,0,6.24-2.72l14.32-15.44A8.5,8.5,0,0,0,393.71,465.93Z"/>
    <path class="cls-4"
          d="M367,238.47l2.05,2.37a14.55,14.55,0,0,0,11,5h52.77a14.52,14.52,0,0,1,14.52,14.54l-.13,84.88,24.15,24.09-24.23,24.17L447,483.82a14.54,14.54,0,0,0,14.54,14.55h29.91A14.53,14.53,0,0,0,506,483.86l.24-157.07L480.94,301.5l-.32-17.22,25.64,25.64,0-17.74L481,266.92l-.33-17.23,25.62,25.62,0-14.9a14.53,14.53,0,0,1,14.54-14.51h38V227a14.49,14.49,0,0,1,4.18-10.19c-52.32,0-140.93,0-186.2,0A13.05,13.05,0,0,0,367,238.47Z"/>
    <path class="cls-4"
          d="M438,344.7V309.11H402.33l-25.24-25.17-25.23,25.17H316.18V344.7l-25.24,25.16L316.18,395v35.59h35.68l25.23,25.16,25.24-25.16H438V395l25.24-25.17Zm-33.89,35.79v16.33H387.75L377,407.53l-10.73-10.71H350.06V380.65L338.79,369.4l11.27-11.25V342.9h15.29L377,331.28l11.66,11.62h15.45v15.42l11.12,11.08Z"/>
    <path class="cls-4"
          d="M1033.3,478.23,917,346.19A14.53,14.53,0,0,1,928,322.09h16.1a14.54,14.54,0,0,0,14.53-14.54V231.36a14.54,14.54,0,0,0-14.53-14.53H796.89A14.49,14.49,0,0,1,801.07,227v19.77a14.47,14.47,0,0,1,5-.89h79.86a14.53,14.53,0,0,1,14.53,14.53v18.06A14.54,14.54,0,0,1,885.92,293H855.54a14.53,14.53,0,0,0-10.92,24.11l158.64,180.25a14.53,14.53,0,0,0,10.92,4.95h8.18A14.53,14.53,0,0,0,1033.3,478.23Z"/>
    <rect class="cls-4" x="520.62" y="369.86" width="39.74" height="132.47" rx="9.75"/>
    <path class="cls-4"
          d="M733.11,344.8v25a9.59,9.59,0,0,1,6.2,1.54l52,33.8a14.53,14.53,0,0,0,1-5.33V231.36a14.53,14.53,0,0,0-14.53-14.53h-195a14.53,14.53,0,0,0-14.53,14.53V378.64l9.83-11.49a9.76,9.76,0,0,1,7.4-3.41H628.7V344.8a14.54,14.54,0,0,1,14.54-14.53h75.34A14.53,14.53,0,0,1,733.11,344.8Zm-15.94-43.88H644.08a14.54,14.54,0,0,1-14.53-14.53v-26a14.53,14.53,0,0,1,14.53-14.53h73.09a14.52,14.52,0,0,1,14.53,14.53v26A14.53,14.53,0,0,1,717.17,300.92Z"/>
    <path class="cls-4"
          d="M704.34,426.25H614.83a9.75,9.75,0,0,1-9.75-9.74V402.69a9.77,9.77,0,0,1,2.44-6.45l3.17-3.59a9.77,9.77,0,0,1,7.31-3.3h79.48a9.75,9.75,0,1,0,0-19.49H588a9.76,9.76,0,0,0-7.41,3.41l-12.72,14.86a9.75,9.75,0,0,0-2.34,6.34V436a9.76,9.76,0,0,0,9.75,9.75h88.94a9.74,9.74,0,0,1,9.74,9.74v15.59a9.74,9.74,0,0,1-2.35,6.36l-1.73,2a9.75,9.75,0,0,1-7.39,3.39H581.88a9.75,9.75,0,1,0,0,19.49h110.5a9.73,9.73,0,0,0,7.4-3.4l12-13.92a9.74,9.74,0,0,0,2.35-6.35V436A9.75,9.75,0,0,0,704.34,426.25Z"/>
    <path class="cls-4"
          d="M867.05,379.64,805.86,419.4a9.74,9.74,0,0,1-10.62,0L734,379.64a9.74,9.74,0,0,0-15,8.18V492.58a9.74,9.74,0,0,0,9.74,9.75h20.06a9.75,9.75,0,0,0,9.75-9.75V444.25a9.75,9.75,0,0,1,15-8.21L795.32,450a9.74,9.74,0,0,0,10.47,0L828,435.93a9.75,9.75,0,0,1,15,8.23v48.42a9.74,9.74,0,0,0,9.74,9.75h19.68a9.74,9.74,0,0,0,9.75-9.75V387.82A9.75,9.75,0,0,0,867.05,379.64Z"/>
    <path d="M389.21,204.89a13,13,0,0,0-9.86,21.58l2.06,2.38a14.54,14.54,0,0,0,11,5l52.77,0a14.51,14.51,0,0,1,14.51,14.53l-.13,84.89,24.15,24.09-24.22,24.16-.14,90.25a14.54,14.54,0,0,0,14.53,14.56h29.91a14.53,14.53,0,0,0,14.53-14.51l.25-157.08-25.29-25.28-.33-17.23,25.64,25.64,0-17.73-25.27-25.27L493,237.7l25.61,25.62,0-14.91a14.53,14.53,0,0,1,14.53-14.51h38V215a14.48,14.48,0,0,1,4.17-10.19C523.09,204.84,434.48,204.85,389.21,204.89Z"/>
    <path d="M450.34,332.7V297.11H414.65L389.42,272l-25.23,25.16H328.5V332.7l-25.23,25.17L328.5,383v35.59h35.69l25.23,25.17,25.23-25.17h35.69V383l25.23-25.16Zm-33.89,35.79v16.34H400.07l-10.73,10.7-10.74-10.7H362.39V368.66l-11.28-11.25,11.28-11.25V330.91h15.29l11.66-11.63L401,330.91h15.46v15.41l11.11,11.09Z"/>
    <path d="M291.65,486.38H252.5a17.36,17.36,0,0,1-13.75-7.17L136.92,345.66c-10.37-13.59-2-34.9,13.75-34.9h67.08c10.11,0,18.3-9.41,18.3-21V263.59c0-11.61-8.19-21-18.3-21H117.23c-10.1,0-18.29,9.42-18.29,21V465.34c0,11.62-8.19,21-18.29,21H41.93c-10.1,0-18.29-9.42-18.29-21V221.53c0-11.62,8.19-21,18.29-21h249c10.11,0,18.3,9.42,18.3,21V331.8c0,11.61-8.19,21-18.3,21H270.66c-15.71,0-24.11,21.28-13.77,34.88l48.53,63.79C315.76,465.1,307.36,486.38,291.65,486.38Z"/>
    <path d="M387,486.38H255.64a8.51,8.51,0,0,1-8.5-8.5V462.43a8.51,8.51,0,0,1,8.5-8.5H401.28a8.5,8.5,0,0,1,6.23,14.28l-14.32,15.45A8.52,8.52,0,0,1,387,486.38Z"/>
    <path d="M1045.62,466.23l-116.28-132a14.53,14.53,0,0,1,10.94-24.1h16.09a14.52,14.52,0,0,0,14.53-14.53V219.37a14.52,14.52,0,0,0-14.53-14.53H809.21A14.43,14.43,0,0,1,813.39,215V234.8a14.52,14.52,0,0,1,5-.9h79.86a14.53,14.53,0,0,1,14.53,14.53v18.06A14.53,14.53,0,0,1,898.24,281H867.87a14.53,14.53,0,0,0-10.93,24.11l158.64,180.24a14.52,14.52,0,0,0,10.93,4.95h8.18A14.53,14.53,0,0,0,1045.62,466.23Z"/>
    <path d="M542.69,357.87h20.25a9.75,9.75,0,0,1,9.75,9.74v113a9.75,9.75,0,0,1-9.75,9.74H542.69a9.74,9.74,0,0,1-9.74-9.74v-113A9.74,9.74,0,0,1,542.69,357.87Z"/>
    <path d="M790.16,204.84h-195a14.53,14.53,0,0,0-14.54,14.53V366.64l9.83-11.48a9.75,9.75,0,0,1,7.41-3.41H641V332.81a14.54,14.54,0,0,1,14.53-14.54h75.35a14.54,14.54,0,0,1,14.53,14.54v25a9.56,9.56,0,0,1,6.19,1.53l52,33.81a14.34,14.34,0,0,0,1-5.34V219.37A14.53,14.53,0,0,0,790.16,204.84ZM744,274.39a14.54,14.54,0,0,1-14.54,14.54H656.41a14.53,14.53,0,0,1-14.53-14.54v-26a14.53,14.53,0,0,1,14.53-14.53h73.08A14.54,14.54,0,0,1,744,248.43Z"/>
    <path d="M724.06,473l-12,13.93a9.75,9.75,0,0,1-7.39,3.39H594.21a9.73,9.73,0,0,1-7.34-3.33h0a9.75,9.75,0,0,1,7.34-16.16h80.61a9.7,9.7,0,0,0,7.38-3.39l1.73-2a9.77,9.77,0,0,0,2.36-6.36V443.5a9.75,9.75,0,0,0-9.75-9.75H587.6a9.74,9.74,0,0,1-9.74-9.74V382.47a9.73,9.73,0,0,1,2.34-6.33l12.72-14.86a9.71,9.71,0,0,1,7.4-3.41H709.81a9.74,9.74,0,0,1,7.4,16.07h0a9.72,9.72,0,0,1-7.4,3.42H630.32a9.74,9.74,0,0,0-7.31,3.3l-3.16,3.59a9.7,9.7,0,0,0-2.44,6.45v13.81a9.74,9.74,0,0,0,9.74,9.75h89.51a9.75,9.75,0,0,1,9.75,9.75v42.66A9.74,9.74,0,0,1,724.06,473Z"/>
    <path d="M731.31,480.59V375.82a9.75,9.75,0,0,1,15.06-8.17l61.19,39.76a9.78,9.78,0,0,0,10.62,0l61.2-39.76a9.74,9.74,0,0,1,15,8.17V480.59a9.74,9.74,0,0,1-9.74,9.74H865a9.75,9.75,0,0,1-9.75-9.74V432.17a9.74,9.74,0,0,0-15-8.23L818.11,438a9.72,9.72,0,0,1-10.46,0L785.86,424a9.75,9.75,0,0,0-15,8.21v48.34a9.74,9.74,0,0,1-9.74,9.74H741.06A9.75,9.75,0,0,1,731.31,480.59Z"/>
</svg>